<svg width="1377" height="144" viewBox="0 0 1377 144" fill="none" xmlns="http://www.w3.org/2000/svg">
<path d="M387 1.8C354.467 7.26666 334.733 23.5333 327.667 50.6C325 60.6 325.133 82.8667 327.667 93C334.067 117.667 353.133 134.6 379.8 139.667C392.733 142.2 417.267 142.2 430.067 139.8C447.4 136.467 461.4 127.8 469.667 115.267C474.067 108.6 479 94.3333 479 88.2V84.2L459.533 84.6L440.067 85L438.2 90.3333C435.933 97 427.533 105 420.867 106.867C413.533 108.867 395.267 108.733 387.8 106.467C379 103.8 373.133 98.8667 369.133 90.7333C366.2 84.8667 365.667 82.0667 365.667 71.8C365.667 61.8 366.2 58.4667 368.867 53C375.133 39.6667 385.133 34.4667 404.333 34.3333C415.4 34.3333 417.933 34.7333 424.333 37.9333C431.4 41.4 439 50.0667 439 54.6C439 55.9333 443.533 56.3333 459.133 56.3333H479.4L478.467 51C477 41.5333 471.133 29.1333 464.867 21.9333C450.467 5.53333 417 -3.13334 387 1.8Z" fill="black"/>
<path d="M854.2 2.2C840.867 4.73333 835.4 6.73333 827.4 11.8C814.467 20.0667 808.6 32.4667 809.933 48.8667C811.8 71.8 826.2 81 867.533 85.6667C890.467 88.3333 901.533 90.8667 904.333 94.3333C907.133 97.6667 905.4 105.8 901.267 108.867C897.8 111.4 895.667 111.667 879.933 111.667C864.6 111.667 861.533 111.267 855.933 108.733C850.867 106.333 849 104.6 847.267 100.333L845 95L827 95.2667L809 95.6667L809.4 102.333C810.333 121.267 825.267 134.867 850.333 139.667C863.4 142.2 891.8 142.2 904.733 139.8C930.6 134.867 944.2 120.867 944.333 99.2667C944.333 87.8 942.067 81.6667 935.267 74.6C925.8 64.7333 915.667 61.4 885 57.6667C853.8 53.9333 847.533 50.6 850.2 39.5333C851.8 33.5333 857.933 31.6667 876.333 31.6667C895 31.6667 900.067 33.2667 904.067 40.4667L906.333 44.3333H924.867H943.267L942.333 39.2667C939 21.2667 927 9.66666 906.067 4.2C892.467 0.73333 867.133 -0.333337 854.2 2.2Z" fill="black"/>
<path d="M530.6 21.2667C526.6 31.4 520.066 47.1334 516.333 56.3334C512.6 65.5334 505 83.8 499.666 97C494.333 110.2 488.066 125.4 485.8 130.733L481.8 140.467L502.466 140.067L523.266 139.667L527.266 129.267L531.266 119L562.733 119.267L594.333 119.667L598.333 129.933L602.333 140.333H622.733C633.8 140.333 643 140.067 643 139.8C643 139.133 629.4 105.533 615 71C611.266 61.8 607.266 52.2 606.333 49.6667C605.266 47.1334 600.733 35.6667 596.066 24.3334L587.533 3.6667L562.866 3.2667L538.2 3.00003L530.6 21.2667ZM573.4 64.0667C578.6 77.9334 583 89.5334 583 90.0667C583 90.6 573.933 91 562.866 91H542.733L543.666 87.4C544.066 85.4 547.266 76.8667 550.6 68.4667C553.933 59.9334 557.8 49.8 559.266 45.9334C560.733 42.2 562.2 39 562.733 39C563.266 39 568.066 50.3334 573.4 64.0667Z" fill="black"/>
<path d="M656.333 71.5333V140.333H675.667H694.867L695.267 121.267L695.667 102.333L727 101.533C759.534 100.733 761.8 100.333 774.6 93.8C781.934 90.0667 790.334 80.2 793.267 71.9333C796.067 63.8 796.467 43.9333 793.934 35.4C791.4 27 784.334 17.5333 777 12.6C763.934 4.06667 762.2 3.8 706.733 3.26667L656.333 2.86667V71.5333ZM746.6 37.5333C753.934 41.2667 756.867 46.7333 756.067 55.2667C755.267 63 750.334 69 743.134 71C740.467 71.6667 728.6 72.3333 716.733 72.3333H695V53.9333C695 43.8 695.4 35 696.067 34.4667C696.6 33.8 706.867 33.6667 719 33.9333C738.2 34.4667 741.667 35 746.6 37.5333Z" fill="black"/>
<path d="M961.933 51.2667C962.467 105.533 962.733 107.533 971.933 119.533C978.467 127.933 987.667 134.2 998.733 137.8C1010.73 141.667 1043.27 142.867 1057 139.933C1075.13 136.067 1089.93 126.333 1096.2 113.8C1102.33 101.8 1103 95.8 1103 48.0667V3.00003H1083.8H1064.47L1064.07 47.9334L1063.67 93L1060.33 99C1056.07 106.733 1050.07 110.6 1040.73 111.8C1022.33 114.067 1009.13 109.533 1004.07 99.1334C1001.13 93.1334 1001 91.5334 1000.6 47.9334L1000.2 3.00003H980.867H961.533L961.933 51.2667Z" fill="black"/>
<path d="M1125.67 71.6667V140.333H1182.33H1239.13L1238.73 124.6L1238.33 109L1202.07 108.6L1165.67 108.333V55.6667V3H1145.67H1125.67V71.6667Z" fill="black"/>
<path d="M1256.33 71.6667V140.333H1316.33H1376.33V124.333V108.333H1335.67H1295V96.3333V84.3333L1332.73 84.0667L1370.33 83.6667L1370.73 70.0667L1371.13 56.3333L1333.4 56.0667L1295.67 55.6667V45V34.3333L1336.07 33.9333L1376.33 33.6667V18.3333V3H1316.33H1256.33V71.6667Z" fill="black"/>
<rect y="1" width="261" height="143" rx="71.5" fill="black"/>
<path d="M138.991 113.275L130.5 143L122.009 113.275C119.814 105.597 115.699 98.6047 110.052 92.958C104.406 87.3113 97.4135 83.1964 89.7353 81.0018L60 72.5L89.7249 64.0087C97.403 61.814 104.395 57.6992 110.042 52.0525C115.689 46.4058 119.804 39.4135 121.998 31.7353L130.5 2L138.991 31.7249C141.186 39.403 145.301 46.3953 150.948 52.042C156.594 57.6887 163.587 61.8036 171.265 63.9982L201 72.5L171.275 80.9913C163.597 83.186 156.605 87.3008 150.958 92.9475C145.311 98.5942 141.196 105.587 139.002 113.265L138.991 113.275Z" fill="white" stroke="black" stroke-width="1.5" stroke-linecap="round" stroke-linejoin="round"/>
</svg>
