<svg width="940" height="100" viewBox="0 0 940 100" fill="none" xmlns="http://www.w3.org/2000/svg">
<path d="M264.311 1.88105C242.092 5.61464 228.614 16.7243 223.788 35.2102C221.967 42.0399 222.058 57.2475 223.788 64.1683C228.159 81.015 241.181 92.58 259.394 96.0404C268.227 97.7706 284.983 97.7706 293.725 96.1315C305.563 93.8549 315.124 87.9358 320.77 79.3758C323.775 74.8227 327.145 65.0789 327.145 60.89V58.1581L313.85 58.4313L300.554 58.7045L299.279 62.347C297.731 66.9002 291.994 72.364 287.441 73.6389C282.433 75.0048 269.957 74.9137 264.858 73.3657C258.847 71.5444 254.841 68.1751 252.109 62.6202C250.105 58.6134 249.741 56.7011 249.741 49.6892C249.741 42.8595 250.105 40.5829 251.927 36.8493C256.207 27.743 263.036 24.1915 276.149 24.1005C283.708 24.1005 285.438 24.3737 289.809 26.5592C294.635 28.9268 299.826 34.8459 299.826 37.9421C299.826 38.8527 302.922 39.1259 313.576 39.1259H327.418L326.781 35.4834C325.779 29.0179 321.772 20.549 317.492 15.6316C307.657 4.43082 284.8 -1.48829 264.311 1.88105Z" fill="black"/>
<path d="M583.397 2.15423C574.29 3.88444 570.557 5.25038 565.093 8.71079C556.26 14.3567 552.253 22.8256 553.164 34.0264C554.439 49.6892 564.274 55.9726 592.503 59.1598C608.166 60.9811 615.724 62.7113 617.637 65.0789C619.549 67.3555 618.365 72.9104 615.542 75.0048C613.174 76.735 611.717 76.9171 600.972 76.9171C590.5 76.9171 588.405 76.6439 584.581 74.9137C581.12 73.2746 579.845 72.0908 578.662 69.1768L577.113 65.5342L564.82 65.7164L552.526 65.9895L552.8 70.5427C553.437 83.4737 563.636 92.7621 580.756 96.0404C589.68 97.7706 609.077 97.7706 617.91 96.1315C635.576 92.7621 644.864 83.2005 644.956 68.4483C644.956 60.6168 643.407 56.4279 638.763 51.6016C632.298 44.8629 625.377 42.5863 604.432 40.0365C583.124 37.4868 578.844 35.2102 580.665 27.6519C581.758 23.5541 585.947 22.2792 598.513 22.2792C611.262 22.2792 614.723 23.372 617.454 28.2894L619.003 30.9302H631.66H644.227L643.59 27.4698C641.313 15.1763 633.117 7.25377 618.82 3.52018C609.532 1.15254 592.23 0.424034 583.397 2.15423Z" fill="black"/>
<path d="M362.387 15.1763C359.655 22.0971 355.193 32.8426 352.643 39.1259C350.093 45.4093 344.903 57.885 341.26 66.9002C337.618 75.9155 333.338 86.2967 331.79 89.9392L329.058 96.5868L343.172 96.3136L357.378 96.0404L360.11 88.9375L362.842 81.9256L384.333 82.1078L405.915 82.381L408.647 89.3928L411.379 96.4958H425.311C432.87 96.4958 439.153 96.3136 439.153 96.1315C439.153 95.6762 429.865 72.7283 420.03 49.1429C417.48 42.8595 414.748 36.303 414.111 34.5728C413.382 32.8426 410.286 25.0111 407.099 17.2708L401.271 3.15596L384.424 2.88277L367.577 2.70065L362.387 15.1763ZM391.618 44.4076C395.17 53.8782 398.175 61.8007 398.175 62.1649C398.175 62.5292 391.982 62.8024 384.424 62.8024H370.674L371.311 60.3437C371.584 58.9777 373.77 53.1497 376.046 47.4127C378.323 41.5846 380.964 34.6638 381.965 32.023C382.967 29.4732 383.969 27.2877 384.333 27.2877C384.697 27.2877 387.976 35.0281 391.618 44.4076Z" fill="black"/>
<path d="M448.259 49.5071V96.4957H461.463H474.576L474.849 83.4737L475.122 70.5427L496.522 69.9963C518.742 69.45 520.29 69.1768 529.032 64.7147C534.04 62.1649 539.777 55.4262 541.781 49.7803C543.693 44.2254 543.966 30.657 542.236 24.829C540.506 19.092 535.679 12.6265 530.671 9.25717C521.747 3.42912 520.563 3.24699 482.681 2.88274L448.259 2.60955V49.5071ZM509.909 26.286C514.917 28.8358 516.92 32.5693 516.374 38.3974C515.828 43.6791 512.458 47.7769 507.541 49.1429C505.72 49.5982 497.615 50.0535 489.51 50.0535H474.667V37.4868C474.667 30.566 474.94 24.5558 475.396 24.1915C475.76 23.7362 482.772 23.6452 491.058 23.8273C504.172 24.1915 506.539 24.5558 509.909 26.286Z" fill="black"/>
<path d="M656.976 35.6655C657.341 72.7283 657.523 74.0942 663.806 82.2899C668.268 88.0269 674.552 92.3069 682.11 94.7656C690.305 97.4064 712.525 98.226 721.904 96.2226C734.289 93.5817 744.397 86.9341 748.677 78.3742C752.866 70.1785 753.321 66.0807 753.321 33.48V2.70065H740.208H727.004L726.731 33.389L726.458 64.1683L724.181 68.2662C721.267 73.5478 717.169 76.1887 710.795 77.0082C698.228 78.5563 689.213 75.4602 685.752 68.3572C683.749 64.2594 683.658 63.1666 683.385 33.389L683.111 2.70065H669.907H656.703L656.976 35.6655Z" fill="black"/>
<path d="M768.802 49.5982V96.4957H807.504H846.297L846.023 85.7503L845.75 75.0959L820.981 74.8227L796.121 74.6406V38.6706V2.70061H782.461H768.802V49.5982Z" fill="black"/>
<path d="M858.044 49.5982V96.4957H899.022H940.001V85.5681V74.6406H912.227H884.452V66.4449V58.2492L910.223 58.0671L935.903 57.7939L936.176 48.5054L936.449 39.1259L910.678 38.9438L884.908 38.6706V31.3855V24.1005L912.5 23.8273L940.001 23.6452V13.1729V2.70061H899.022H858.044V49.5982Z" fill="black"/>
<rect y="1.33469" width="178.256" height="97.6653" rx="48.8326" fill="black"/>
<path d="M94.9275 78.0157L89.1282 98.317L83.3288 78.0157C81.8299 72.7717 79.0196 67.9961 75.1631 64.1396C71.3065 60.283 66.5309 57.4727 61.287 55.9738L40.9785 50.1673L61.2798 44.368C66.5238 42.8691 71.2994 40.0587 75.1559 36.2022C79.0125 32.3456 81.8228 27.5701 83.3217 22.3261L89.1282 2.01764L94.9275 22.319C96.4264 27.5629 99.2368 32.3385 103.093 36.1951C106.95 40.0516 111.725 42.8619 116.969 44.3608L137.278 50.1673L116.977 55.9667C111.733 57.4656 106.957 60.2759 103.1 64.1324C99.2439 67.989 96.4336 72.7646 94.9347 78.0085L94.9275 78.0157Z" fill="white" stroke="black" stroke-width="1.5" stroke-linecap="round" stroke-linejoin="round"/>
</svg>
